HIERARCHY
ROOT Hips
{
	OFFSET 0.000000 0.000000 0.000000
	CHANNELS 6 Xposition Yposition Zposition Xrotation Yrotation Zrotation
	JOINT Chest
	{
		OFFSET 0.000000 0.009282 11.569106
		CHANNELS 6 Xposition Yposition Zposition Xrotation Yrotation Zrotation
		JOINT Chest2
		{
			OFFSET 0.000000 -0.016863 9.269641
			CHANNELS 6 Xposition Yposition Zposition Xrotation Yrotation Zrotation
			JOINT Chest3
			{
				OFFSET 0.000000 0.000000 8.374491
				CHANNELS 6 Xposition Yposition Zposition Xrotation Yrotation Zrotation
				JOINT Chest4
				{
					OFFSET 0.000000 0.000000 8.374493
					CHANNELS 6 Xposition Yposition Zposition Xrotation Yrotation Zrotation
					JOINT Neck
					{
						OFFSET 0.000000 -0.000001 12.152554
						CHANNELS 6 Xposition Yposition Zposition Xrotation Yrotation Zrotation
						JOINT Head
						{
							OFFSET 0.000000 -0.040100 7.802319
							CHANNELS 6 Xposition Yposition Zposition Xrotation Yrotation Zrotation
							End Site
							{
								OFFSET 0.000000 -0.020946 14.853096
							}
						}
					}
					JOINT RightCollar
					{
						OFFSET -2.894404 0.000000 6.791374
						CHANNELS 6 Xposition Yposition Zposition Xrotation Yrotation Zrotation
						JOINT RightShoulder
						{
							OFFSET -13.574684 0.000000 0.000000
							CHANNELS 6 Xposition Yposition Zposition Xrotation Yrotation Zrotation
							JOINT RightElbow
							{
								OFFSET -23.923903 0.000000 0.000000
								CHANNELS 6 Xposition Yposition Zposition Xrotation Yrotation Zrotation
								JOINT RightWrist
								{
									OFFSET -19.846718 -0.012765 0.000000
									CHANNELS 6 Xposition Yposition Zposition Xrotation Yrotation Zrotation
									End Site
									{
										OFFSET -14.973145 0.000000 0.000000
									}
								}
							}
						}
					}
					JOINT LeftCollar
					{
						OFFSET 2.894404 0.000000 6.791374
						CHANNELS 6 Xposition Yposition Zposition Xrotation Yrotation Zrotation
						JOINT LeftShoulder
						{
							OFFSET 13.574684 0.000000 0.000000
							CHANNELS 6 Xposition Yposition Zposition Xrotation Yrotation Zrotation
							JOINT LeftElbow
							{
								OFFSET 23.923903 0.000000 0.000000
								CHANNELS 6 Xposition Yposition Zposition Xrotation Yrotation Zrotation
								JOINT LeftWrist
								{
									OFFSET 19.846718 -0.012765 0.000000
									CHANNELS 6 Xposition Yposition Zposition Xrotation Yrotation Zrotation
									End Site
									{
										OFFSET 14.973145 0.000000 0.000000
									}
								}
							}
						}
					}
				}
			}
		}
	}
	JOINT RightHip
	{
		OFFSET -9.469263 -0.004642 0.045487
		CHANNELS 6 Xposition Yposition Zposition Xrotation Yrotation Zrotation
		JOINT RightKnee
		{
			OFFSET 0.000000 -0.002666 -40.478676
			CHANNELS 6 Xposition Yposition Zposition Xrotation Yrotation Zrotation
			JOINT RightAnkle
			{
				OFFSET 0.000000 -0.049110 -35.224068
				CHANNELS 6 Xposition Yposition Zposition Xrotation Yrotation Zrotation
				JOINT RightToe
				{
					OFFSET 0.000000 -12.539530 -6.151390
					CHANNELS 6 Xposition Yposition Zposition Xrotation Yrotation Zrotation
					End Site
					{
						OFFSET 0.000000 -5.044995 -1.291870
					}
				}
			}
		}
	}
	JOINT LeftHip
	{
		OFFSET 9.469263 -0.004642 0.045487
		CHANNELS 6 Xposition Yposition Zposition Xrotation Yrotation Zrotation
		JOINT LeftKnee
		{
			OFFSET 0.000000 -0.002666 -40.478676
			CHANNELS 6 Xposition Yposition Zposition Xrotation Yrotation Zrotation
			JOINT LeftAnkle
			{
				OFFSET 0.000000 -0.049110 -35.224068
				CHANNELS 6 Xposition Yposition Zposition Xrotation Yrotation Zrotation
				JOINT LeftToe
				{
					OFFSET 0.000000 -12.539530 -6.151390
					CHANNELS 6 Xposition Yposition Zposition Xrotation Yrotation Zrotation
					End Site
					{
						OFFSET 0.000000 -5.044995 -1.291870
					}
				}
			}
		}
	}
}
MOTION
Frames: 8
Frame Time: 0.016667
-10.760181 -7.101843 83.101395 2.859804 4.963861 -112.788410 -0.000000 0.009283 11.569099 1.040153 -0.155982 -0.767824 -0.000001 -0.016862 9.269631 0.460971 -0.067365 -0.339306 0.000000 0.000002 8.374479 0.460970 -0.067365 -0.339304 -0.000000 0.000000 8.374496 0.345765 -0.050267 -0.254531 0.000000 -0.000001 12.152560 20.315716 -0.638304 -0.284603 0.000001 -0.040097 7.802319 1.539918 -1.081367 -0.713543 -2.894404 0.000001 6.791375 3.783880 -4.058626 2.442934 -13.574682 0.000001 -0.000004 28.175925 -52.732271 77.029514 -23.923899 -0.000005 0.000003 39.575755 2.815130 78.922173 -19.846718 -0.012776 -0.000003 -49.935014 41.763742 76.146200 2.894403 0.000000 6.791378 3.959605 9.771969 -5.655715 13.574683 0.000001 0.000003 24.811224 52.559532 -70.814752 23.923903 -0.000015 -0.000003 43.444651 9.595913 -56.653919 19.846712 -0.012763 -0.000007 -42.900866 -39.135194 -82.629190 -9.469264 -0.004642 0.045480 8.140888 -0.269156 -0.509451 0.000054 -0.002667 -40.478611 1.410777 0.411585 -1.127953 -0.000002 -0.049118 -35.224228 -3.745320 -1.246134 0.012949 0.000000 -12.539532 -6.151376 0.027229 0.018019 -0.009819 9.469263 -0.004642 0.045477 8.814718 0.619953 0.434218 -0.000044 -0.002666 -40.478691 -0.182715 -0.713105 0.909315 0.000013 -0.049118 -35.224216 -3.180338 0.113326 -0.299717 0.000001 -12.539533 -6.151378 0.012800 -0.008091 0.009084 
-10.755389 -7.097970 83.101372 2.853620 4.958677 -112.788662 -0.000001 0.009282 11.569106 1.037718 -0.156223 -0.757885 -0.000000 -0.016863 9.269631 0.459993 -0.067273 -0.334764 -0.000001 0.000000 8.374491 0.459992 -0.067273 -0.334770 -0.000001 -0.000000 8.374489 0.345030 -0.050203 -0.251129 0.000001 -0.000002 12.152553 20.314803 -0.637939 -0.284534 -0.000001 -0.040101 7.802298 1.538218 -1.080716 -0.713323 -2.894404 -0.000001 6.791383 3.782592 -4.065988 2.437648 -13.574683 -0.000000 0.000012 28.160604 -52.727592 77.018866 -23.923889 -0.000010 0.000001 39.576431 2.798089 78.922638 -19.846722 -0.012758 -0.000007 -49.928382 41.753660 76.129411 2.894405 -0.000001 6.791382 3.958919 9.770515 -5.654014 13.574683 0.000002 0.000007 24.822810 52.572273 -70.832169 23.923904 0.000004 0.000000 43.451983 9.609941 -56.641796 19.846706 -0.012773 -0.000003 -42.894531 -39.126667 -82.630604 -9.469264 -0.004642 0.045486 8.141736 -0.269408 -0.515634 0.000053 -0.002667 -40.478615 1.389488 0.412316 -1.123925 -0.000001 -0.049121 -35.224247 -3.737545 -1.248102 0.013060 0.000000 -12.539530 -6.151379 0.029389 0.019673 -0.009536 9.469263 -0.004642 0.045488 8.808086 0.619314 0.428332 -0.000045 -0.002665 -40.478683 -0.188354 -0.713685 0.905893 0.000014 -0.049117 -35.224209 -3.173744 0.116586 -0.294917 0.000000 -12.539530 -6.151376 0.011558 -0.006542 0.009550 
-10.749272 -7.093150 83.101112 2.847661 4.957538 -112.787330 0.000000 0.009280 11.569105 1.034595 -0.156918 -0.749536 0.000000 -0.016864 9.269643 0.458929 -0.067443 -0.330852 -0.000001 -0.000001 8.374487 0.458930 -0.067443 -0.330854 -0.000001 0.000000 8.374500 0.344235 -0.050334 -0.248189 -0.000001 -0.000003 12.152557 20.313283 -0.632852 -0.283155 0.000001 -0.040098 7.802323 1.535453 -1.071826 -0.709274 -2.894405 -0.000000 6.791369 3.785687 -4.070031 2.433751 -13.574680 0.000000 0.000001 28.147295 -52.722934 77.012896 -23.923897 -0.000003 -0.000008 39.578651 2.773822 78.920391 -19.846722 -0.012762 0.000003 -49.933706 41.742817 76.119439 2.894404 -0.000000 6.791374 3.962682 9.770837 -5.648610 13.574684 0.000003 -0.000008 24.837542 52.567602 -70.850761 23.923899 -0.000010 -0.000003 43.447154 9.613862 -56.639484 19.846712 -0.012776 0.000004 -42.891392 -39.126083 -82.623371 -9.469263 -0.004644 0.045484 8.143345 -0.270572 -0.513503 0.000054 -0.002667 -40.478611 1.373911 0.414365 -1.123092 -0.000002 -0.049118 -35.224232 -3.731178 -1.248982 0.006662 0.000000 -12.539530 -6.151378 0.030068 0.020769 -0.008756 9.469263 -0.004644 0.045493 8.805071 0.621077 0.416564 -0.000041 -0.002666 -40.478695 -0.195824 -0.717712 0.905558 0.000015 -0.049118 -35.224209 -3.166029 0.120873 -0.285268 -0.000001 -12.539531 -6.151385 0.011266 -0.004440 0.008968 
-10.741841 -7.088284 83.100533 2.841259 4.955318 -112.783587 0.000000 0.009283 11.569118 1.029902 -0.157782 -0.744380 0.000000 -0.016862 9.269653 0.456993 -0.067628 -0.328531 -0.000001 0.000001 8.374494 0.456994 -0.067627 -0.328530 -0.000001 0.000001 8.374489 0.342782 -0.050475 -0.246450 -0.000001 0.000001 12.152546 20.310391 -0.623858 -0.278144 0.000002 -0.040094 7.802309 1.530171 -1.056875 -0.697418 -2.894405 0.000002 6.791369 3.790320 -4.067665 2.434594 -13.574681 -0.000002 0.000004 28.144539 -52.719157 77.018101 -23.923903 -0.000011 0.000002 39.575236 2.748971 78.912345 -19.846716 -0.012765 0.000004 -49.929332 41.737408 76.109781 2.894403 0.000001 6.791368 3.977485 9.770388 -5.647252 13.574680 0.000000 0.000005 24.822383 52.560792 -70.850078 23.923893 -0.000008 -0.000001 43.439839 9.623695 -56.628945 19.846708 -0.012772 -0.000000 -42.888114 -39.116866 -82.625003 -9.469263 -0.004641 0.045496 8.138811 -0.272974 -0.505343 0.000054 -0.002668 -40.478619 1.367604 0.417501 -1.129914 -0.000001 -0.049119 -35.224236 -3.730067 -1.249247 -0.000173 0.000001 -12.539533 -6.151381 0.031542 0.020769 -0.007964 9.469262 -0.004640 0.045500 8.795615 0.620986 0.399680 -0.000042 -0.002666 -40.478687 -0.194178 -0.720615 0.910749 0.000013 -0.049123 -35.224213 -3.163009 0.125623 -0.278583 -0.000001 -12.539533 -6.151386 0.011745 -0.002632 0.008069 
-10.733261 -7.082141 83.099724 2.834611 4.955075 -112.779763 -0.000000 0.009284 11.569110 1.029274 -0.153455 -0.733785 0.000001 -0.016863 9.269644 0.456631 -0.065336 -0.323687 0.000001 0.000000 8.374494 0.456630 -0.065336 -0.323679 0.000001 -0.000001 8.374500 0.342507 -0.048760 -0.242811 0.000000 -0.000001 12.152566 20.303441 -0.617923 -0.272285 0.000000 -0.040100 7.802316 1.517342 -1.047761 -0.684958 -2.894404 0.000001 6.791378 3.787735 -4.076684 2.424299 -13.574683 0.000001 0.000000 28.142529 -52.718559 77.025334 -23.923906 -0.000005 0.000000 39.576995 2.738516 78.904292 -19.846720 -0.012762 0.000004 -49.924417 41.743808 76.106421 2.894404 0.000001 6.791379 3.977994 9.759141 -5.654557 13.574682 -0.000001 -0.000004 24.817612 52.548972 -70.859511 23.923901 -0.000010 0.000008 43.424738 9.636146 -56.616411 19.846710 -0.012773 -0.000001 -42.867947 -39.114144 -82.615632 -9.469263 -0.004641 0.045489 8.134633 -0.275643 -0.498659 0.000055 -0.002668 -40.478600 1.363176 0.420829 -1.128924 -0.000000 -0.049117 -35.224247 -3.728965 -1.247618 -0.011823 0.000000 -12.539532 -6.151369 0.032478 0.020376 -0.007142 9.469263 -0.004640 0.045494 8.789602 0.621990 0.386846 -0.000044 -0.002667 -40.478703 -0.197172 -0.724297 0.920566 0.000015 -0.049117 -35.224209 -3.156241 0.130757 -0.278882 0.000001 -12.539530 -6.151378 0.011512 -0.000516 0.007339 
-10.725741 -7.076326 83.098778 2.828664 4.956816 -112.775248 0.000000 0.009282 11.569098 1.031294 -0.154085 -0.727966 -0.000000 -0.016862 9.269632 0.457322 -0.065455 -0.321460 0.000001 0.000000 8.374484 0.457322 -0.065455 -0.321465 0.000000 0.000000 8.374481 0.343027 -0.048850 -0.241150 -0.000001 -0.000003 12.152536 20.293498 -0.606023 -0.265527 0.000001 -0.040098 7.802309 1.499002 -1.027997 -0.669068 -2.894405 -0.000001 6.791363 3.781579 -4.076288 2.423478 -13.574684 0.000000 0.000016 28.135494 -52.710967 77.029104 -23.923899 0.000006 0.000009 39.572306 2.719915 78.896799 -19.846712 -0.012761 0.000012 -49.900805 41.741810 76.091299 2.894403 -0.000000 6.791361 3.970406 9.763708 -5.649531 13.574684 0.000002 0.000008 24.821167 52.543378 -70.871914 23.923893 -0.000009 -0.000001 43.412826 9.652932 -56.600541 19.846720 -0.012769 -0.000017 -42.864987 -39.119396 -82.624641 -9.469263 -0.004643 0.045482 8.133546 -0.274061 -0.491882 0.000053 -0.002667 -40.478611 1.358638 0.417530 -1.119375 0.000000 -0.049119 -35.224236 -3.728777 -1.242740 -0.029337 0.000001 -12.539532 -6.151389 0.033365 0.019875 -0.007648 9.469262 -0.004642 0.045471 8.787563 0.623383 0.390212 -0.000044 -0.002667 -40.478687 -0.203053 -0.729078 0.915442 0.000012 -0.049119 -35.224213 -3.150020 0.137424 -0.283928 -0.000001 -12.539533 -6.151379 0.012546 0.000700 0.007034 
-10.719567 -7.069966 83.097511 2.820154 4.955961 -112.765651 -0.000001 0.009282 11.569090 1.033855 -0.153819 -0.723390 0.000000 -0.016863 9.269635 0.458136 -0.064959 -0.319697 0.000000 -0.000000 8.374498 0.458134 -0.064958 -0.319695 -0.000000 0.000000 8.374508 0.343636 -0.048480 -0.239820 -0.000000 0.000002 12.152554 20.282660 -0.594514 -0.258056 -0.000000 -0.040102 7.802330 1.478986 -1.009163 -0.652009 -2.894405 0.000002 6.791379 3.773577 -4.079479 2.425688 -13.574681 0.000001 0.000002 28.107794 -52.701596 77.018572 -23.923891 -0.000007 0.000002 39.573956 2.693143 78.892202 -19.846718 -0.012758 0.000001 -49.906942 41.741178 76.086361 2.894402 0.000002 6.791376 3.963079 9.764181 -5.647658 13.574686 0.000001 0.000011 24.825919 52.548757 -70.884366 23.923885 -0.000002 0.000006 43.393770 9.689189 -56.586587 19.846710 -0.012772 0.000001 -42.854967 -39.122265 -82.627913 -9.469265 -0.004642 0.045470 8.132471 -0.272808 -0.492861 0.000053 -0.002667 -40.478615 1.350293 0.415821 -1.108291 0.000001 -0.049120 -35.224239 -3.728410 -1.238149 -0.045264 -0.000000 -12.539533 -6.151379 0.034573 0.019231 -0.008064 9.469261 -0.004643 0.045473 8.782277 0.626627 0.409731 -0.000043 -0.002666 -40.478691 -0.208399 -0.734675 0.890778 0.000015 -0.049118 -35.224209 -3.144912 0.142750 -0.287066 0.000001 -12.539535 -6.151379 0.013642 0.002517 0.007125 
-10.714013 -7.062226 83.096504 2.811958 4.955350 -112.754061 -0.000000 0.009282 11.569101 1.037775 -0.152347 -0.717461 -0.000001 -0.016863 9.269647 0.459664 -0.064039 -0.316778 0.000001 0.000002 8.374474 0.459664 -0.064040 -0.316784 0.000000 0.000001 8.374496 0.344781 -0.047791 -0.237636 -0.000002 -0.000003 12.152562 20.270026 -0.586054 -0.255302 -0.000000 -0.040101 7.802311 1.455612 -0.994473 -0.644498 -2.894406 0.000001 6.791381 3.758186 -4.086346 2.422513 -13.574678 0.000000 0.000020 28.078657 -52.693298 76.998355 -23.923897 -0.000013 -0.000004 39.577323 2.655379 78.893562 -19.846722 -0.012768 -0.000003 -49.922122 41.738494 76.087529 2.894402 0.000001 6.791375 3.952722 9.765822 -5.653700 13.574681 0.000003 0.000003 24.841246 52.549382 -70.897780 23.923895 -0.000003 0.000005 43.367040 9.726348 -56.570991 19.846720 -0.012761 0.000002 -42.839718 -39.128760 -82.629928 -9.469262 -0.004641 0.045482 8.134994 -0.274540 -0.506890 0.000052 -0.002667 -40.478588 1.337430 0.417680 -1.094490 0.000001 -0.049118 -35.224243 -3.725848 -1.233745 -0.054205 0.000000 -12.539531 -6.151376 0.035100 0.017773 -0.007951 9.469263 -0.004642 0.045482 8.777452 0.627313 0.421469 -0.000043 -0.002665 -40.478699 -0.212666 -0.739421 0.869054 0.000014 -0.049118 -35.224209 -3.139869 0.149785 -0.288255 0.000002 -12.539527 -6.151376 0.013783 0.003421 0.007379 
